<svg version="1.1" id="Layer_1" xmlns="http://www.w3.org/2000/svg" xmlns:xlink="http://www.w3.org/1999/xlink" x="0px" y="0px"
	 width="100%" viewBox="0 0 496 496" enable-background="new 0 0 496 496" xml:space="preserve">
<path fill="#000000" opacity="1.000000" stroke="none" 
	d="
M195.015411,155.035995 
	C192.712997,148.235779 192.749786,141.475906 194.276154,134.424072 
	C195.012848,131.020538 193.934357,127.178696 193.456238,123.564629 
	C188.544189,86.434166 224.184204,52.883293 260.999634,60.016163 
	C289.712280,65.579140 309.839661,89.639076 309.100769,118.294495 
	C308.874969,127.052238 307.440460,135.707504 308.994690,144.544678 
	C309.527618,147.574814 307.812683,151.000290 307.062195,154.628098 
	C306.999725,155.011063 307.021515,154.990463 307.021515,154.990463 
	C302.539032,161.168671 297.499695,166.525650 289.374298,167.707993 
	C287.052032,168.045868 286.402191,169.715408 286.261230,172.050018 
	C285.656464,182.066498 280.738800,186.873611 270.266449,187.665436 
	C269.042725,183.175964 269.892029,178.531113 269.676270,173.969330 
	C269.553497,171.373260 269.556519,168.423691 266.093140,168.610657 
	C262.822693,168.787186 263.376526,171.836517 263.333984,174.082809 
	C263.255310,178.240479 263.172882,182.404877 263.322021,186.558197 
	C263.473969,190.789642 260.375671,190.798431 257.627075,191.143143 
	C254.234344,191.568649 253.898865,189.180695 253.889267,186.661774 
	C253.871521,182.003845 253.891403,177.345657 253.854279,172.687927 
	C253.837082,170.530624 253.334625,168.415604 250.663361,168.589813 
	C248.197433,168.750656 248.249527,170.965515 248.226334,172.800873 
	C248.167480,177.458389 248.186646,182.116837 248.149292,186.774704 
	C248.128632,189.351227 247.583908,191.572845 244.255035,191.150131 
	C241.439499,190.792587 238.495102,190.636612 238.670151,186.453156 
	C238.850815,182.135651 238.705368,177.804031 238.683762,173.478683 
	C238.672668,171.256836 238.643829,168.651169 235.728943,168.617340 
	C232.604294,168.581070 232.436905,171.230713 232.340195,173.681717 
	C232.158600,178.283936 232.864944,182.938248 231.808029,187.495361 
	C221.555771,186.757935 216.706696,182.487320 215.962463,172.993515 
	C215.683411,169.433640 214.792358,167.732605 210.977341,167.086685 
	C203.968033,165.899948 199.339661,161.054916 195.253677,155.202118 
	C195.000748,155.008942 195.015411,155.035995 195.015411,155.035995 
M264.424072,137.100418 
	C268.123535,140.394241 272.495026,142.404144 277.274628,143.420776 
	C286.272827,145.334732 292.413696,140.480789 292.633179,131.361572 
	C292.733368,127.199989 292.748383,123.031242 292.629822,118.870651 
	C292.434479,112.013687 289.528351,108.326294 282.873871,106.959633 
	C277.134247,105.780853 271.229523,105.830658 265.511230,106.846092 
	C257.625000,108.246483 254.386932,114.031799 255.976486,121.938049 
	C257.138092,127.715683 259.694275,132.563904 264.424072,137.100418 
M212.770599,140.763046 
	C215.360474,143.249298 218.504059,143.814194 221.980270,143.711868 
	C234.617599,143.339874 246.868073,130.650787 246.636856,118.051407 
	C246.546326,113.118576 243.327103,108.434906 239.009155,107.465355 
	C232.459457,105.994675 225.786697,105.831055 219.176132,106.835098 
	C212.386414,107.866348 209.499359,111.470901 209.346115,118.485031 
	C209.255234,122.644836 209.429138,126.811501 209.294113,130.968918 
	C209.181030,134.450928 209.951950,137.559341 212.770599,140.763046 
M245.339218,157.959000 
	C248.656693,154.208649 252.039368,151.782120 255.830017,157.434113 
	C255.919769,157.567947 256.066803,157.667313 256.197937,157.768799 
	C257.688446,158.922653 259.309784,159.161438 260.720734,157.842758 
	C262.283478,156.382217 261.496246,154.897659 260.432831,153.430527 
	C253.255569,143.528702 251.085922,143.360413 242.749985,152.144104 
	C242.406631,152.505920 242.050446,152.855560 241.706375,153.216705 
	C240.595413,154.382767 239.919495,155.711761 240.801056,157.255981 
	C241.709549,158.847336 243.184616,158.834808 245.339218,157.959000 
z"/>
<path fill="#000000" opacity="1.000000" stroke="none" 
	d="
M188.252594,60.273476 
	C204.465088,43.145531 224.266037,35.376804 247.290619,34.527054 
	C270.064850,33.686535 290.482483,39.827930 307.870575,54.517681 
	C324.461029,68.533562 331.991608,86.715553 330.357025,108.541382 
	C330.184204,110.849281 329.729828,112.340218 326.967010,112.298714 
	C324.197815,112.257111 323.627655,110.692055 323.669861,108.419975 
	C323.691498,107.254539 323.547760,106.075806 323.673798,104.924423 
	C324.090729,101.114159 323.110443,98.769875 318.606842,99.278801 
	C315.874542,99.587555 314.269135,98.109894 313.730072,95.384453 
	C308.560333,69.246948 291.116791,55.395496 266.479462,49.923290 
	C243.362930,44.788860 222.143219,49.724197 204.136612,65.684586 
	C195.664093,73.194283 190.296432,82.683578 188.374588,93.921951 
	C187.820251,97.163567 186.486389,99.390114 183.011322,99.229233 
	C179.164536,99.051155 177.963425,100.810928 178.334122,104.348701 
	C178.489349,105.830170 178.308517,107.344246 178.332520,108.842667 
	C178.367050,110.997528 177.642258,112.271111 175.192017,112.311745 
	C172.573242,112.355164 171.811081,111.131409 171.642151,108.687889 
	C170.479645,91.872826 174.467468,76.668938 185.421646,63.573639 
	C186.275940,62.552361 187.144760,61.543228 188.252594,60.273476 
z"/>
<path fill="#000000" opacity="1.000000" stroke="none" 
	d="
M335.429382,344.206665 
	C342.161957,344.077972 343.224945,345.043488 343.294739,351.120087 
	C343.352051,356.111115 343.272430,361.103699 343.333710,366.094604 
	C343.359344,368.183594 342.881836,371.097412 345.867859,371.178802 
	C348.834869,371.259613 348.622162,368.423004 348.636932,366.272125 
	C348.674591,360.781555 348.740204,355.289215 348.640076,349.800385 
	C348.572815,346.114807 350.176300,344.135529 353.875153,344.007233 
	C357.622375,343.877228 360.069366,345.495483 360.104828,349.458649 
	C360.191101,359.107330 360.174255,368.757904 360.085907,378.406677 
	C360.054169,381.874756 358.077850,383.462738 354.600494,383.343353 
	C351.941559,383.252014 349.272980,383.241943 346.615601,383.356415 
	C343.298279,383.499359 340.651917,382.832031 339.914764,379.012878 
	C339.651611,377.649384 339.029327,376.411194 337.320007,376.535858 
	C335.933014,376.636993 335.282074,377.729858 335.054596,378.877594 
	C334.252472,382.924072 331.464569,383.443054 327.966461,383.389221 
	C314.721649,383.185547 314.606262,385.164795 314.765137,370.073029 
	C314.835205,363.418335 314.831177,356.761993 314.773621,350.107147 
	C314.737579,345.942200 316.751068,343.947571 320.849823,343.984863 
	C324.822662,344.020996 326.454865,346.098480 326.361511,350.011078 
	C326.234528,355.332275 326.320343,360.659210 326.360413,365.983368 
	C326.376373,368.105469 325.991455,371.051178 328.873505,371.109711 
	C332.201263,371.177307 331.642120,368.013062 331.675659,365.784454 
	C331.755737,360.461121 331.728821,355.136047 331.730133,349.811676 
	C331.730743,347.312653 332.276428,345.160217 335.429382,344.206665 
z"/>
<path fill="#000000" opacity="1.000000" stroke="none" 
	d="
M229.075623,292.407227 
	C228.797455,290.070923 229.233597,287.401733 226.281540,287.645996 
	C223.790634,287.852081 224.202789,290.296936 224.178024,292.046997 
	C224.095642,297.871765 224.185867,303.699310 224.075256,309.523224 
	C223.970367,315.044861 222.603500,316.294250 217.831726,316.351746 
	C213.007187,316.409912 212.602997,313.436127 212.637512,309.736328 
	C212.719833,300.915192 212.819916,292.088806 212.598389,283.272461 
	C212.483139,278.685150 214.526917,276.892517 218.824356,276.951813 
	C221.486771,276.988556 224.151962,276.893097 226.812531,276.971344 
	C229.511887,277.050781 231.755737,277.897125 232.288742,280.982483 
	C232.538864,282.430450 233.190170,283.541992 234.775055,283.650604 
	C236.646469,283.778931 237.412277,282.574310 237.715851,280.925354 
	C238.183624,278.384460 239.987473,277.448700 242.300751,277.054657 
	C254.946747,274.900513 257.339569,276.859924 257.348083,289.455780 
	C257.352905,296.613159 257.290863,303.770874 257.343262,310.927826 
	C257.368134,314.321930 256.130737,316.228882 252.439346,316.344452 
	C248.729507,316.460571 246.086426,315.410095 245.995224,311.282776 
	C245.851868,304.794464 245.948624,298.301117 245.864136,291.810944 
	C245.841080,290.040497 246.097870,287.633820 243.575806,287.540924 
	C240.956955,287.444458 240.519272,289.825806 240.479706,291.847656 
	C240.355927,298.170593 240.341949,304.497101 240.392822,310.821350 
	C240.419388,314.123596 239.486420,316.203857 235.668945,316.353912 
	C231.911682,316.501556 229.370056,315.459320 229.271423,311.324646 
	C229.124603,305.170074 229.137238,299.011719 229.075623,292.407227 
z"/>
<path fill="#000000" opacity="1.000000" stroke="none" 
	d="
M309.868530,306.352112 
	C312.214935,305.050293 311.707886,303.051880 311.727112,301.291351 
	C311.794525,295.128510 311.791107,288.964630 311.780396,282.801208 
	C311.773590,278.887970 313.651123,276.896484 317.595642,277.021698 
	C321.375305,277.141724 323.387909,278.881866 323.344910,282.924652 
	C323.245575,292.252167 323.291962,301.581573 323.331696,310.909973 
	C323.347595,314.642914 321.641998,316.415649 317.857849,316.351196 
	C312.861816,316.266052 307.856659,316.170746 302.867706,316.377380 
	C298.411407,316.561951 296.444489,314.839050 296.602631,310.260620 
	C296.809418,304.270874 296.678406,298.268127 296.626984,292.271545 
	C296.608521,290.117554 296.750488,287.384094 293.676910,287.506439 
	C290.870850,287.618103 291.329559,290.270264 291.312744,292.196198 
	C291.260315,298.192749 291.253143,304.190308 291.300903,310.186890 
	C291.332825,314.192932 289.842529,316.389313 285.429138,316.383636 
	C280.997284,316.377960 279.617035,314.210022 279.663635,310.159851 
	C279.765167,301.332123 279.821533,292.499817 279.642181,283.674561 
	C279.547791,279.029083 281.440125,276.850403 286.092529,276.922485 
	C290.755615,276.994751 295.420959,276.957062 300.084961,276.921326 
	C304.344269,276.888702 306.557068,278.609680 306.393341,283.217621 
	C306.180542,289.206879 306.329834,295.209839 306.363983,301.206635 
	C306.377319,303.547272 306.183716,306.078308 309.868530,306.352112 
z"/>
<path fill="#000000" opacity="1.000000" stroke="none" 
	d="
M306.993408,155.025253 
	C309.910583,150.986710 310.650543,146.187439 309.593628,141.678711 
	C307.277222,131.797089 310.664246,122.171898 309.732513,112.501129 
	C315.185425,111.286537 316.911957,112.291328 320.452209,118.715843 
	C322.862213,116.519623 325.826050,116.423790 328.812744,116.776176 
	C333.609711,117.342125 336.255615,120.211472 336.306122,125.079529 
	C336.394012,133.555313 336.442902,142.034622 336.294037,150.508698 
	C336.182312,156.869476 328.013947,160.950714 322.568268,157.555725 
	C319.629028,155.723312 321.316498,152.668930 320.396515,150.024109 
	C319.962738,154.730042 320.690826,159.795731 315.770294,162.399826 
	C311.669220,164.570236 307.239685,164.510788 302.073853,163.567123 
	C303.870636,160.591019 305.356812,158.129364 306.932251,155.329086 
	C307.021515,154.990463 306.999725,155.011063 306.993408,155.025253 
z"/>
<path fill="#000000" opacity="1.000000" stroke="none" 
	d="
M197.252167,418.147552 
	C198.289948,422.778442 199.070496,426.659729 193.362534,428.609375 
	C190.462387,429.599976 190.963501,432.349884 193.630524,433.259064 
	C198.067383,434.771667 198.376556,437.797333 197.739563,441.558044 
	C196.968704,446.108917 194.554962,449.730286 189.903610,450.046814 
	C182.125031,450.576111 174.286469,450.293793 166.474350,450.222046 
	C163.814941,450.197601 162.703476,448.406494 162.700073,445.900665 
	C162.686310,435.757294 162.694839,425.613922 162.699203,415.470551 
	C162.700607,412.206573 164.847565,411.088379 167.588120,411.042694 
	C174.235703,410.931793 180.896545,410.799805 187.532578,411.102722 
	C191.904343,411.302307 195.570312,413.204437 197.252167,418.147552 
M177.172836,440.665680 
	C179.987701,440.301666 183.240189,442.014465 185.484558,439.029083 
	C185.993744,438.351868 185.792358,437.344086 185.151855,436.723297 
	C182.777405,434.421875 179.705307,435.034851 177.107849,435.592621 
	C173.696030,436.325256 173.004547,438.356079 177.172836,440.665680 
M180.376495,425.916809 
	C180.868469,425.909302 181.362671,425.929138 181.852036,425.889435 
	C183.656204,425.743103 185.929428,425.772797 185.886185,423.347198 
	C185.842224,420.881836 183.477081,421.153351 181.733032,420.961609 
	C181.084137,420.890289 180.413712,420.866394 179.767822,420.943756 
	C177.760178,421.184204 174.779892,420.484650 174.667313,423.402893 
	C174.545044,426.572815 177.603897,425.620728 180.376495,425.916809 
z"/>
<path fill="#000000" opacity="1.000000" stroke="none" 
	d="
M274.050537,354.196289 
	C274.256561,344.424072 274.773621,343.906250 284.074188,343.892761 
	C290.559235,343.883331 297.044647,343.874634 303.529327,343.930115 
	C306.835358,343.958435 309.473297,344.859222 309.530975,348.928436 
	C309.589783,353.078827 306.893005,353.866974 303.603516,353.916931 
	C298.949036,353.987640 294.292419,353.935455 289.638763,354.033447 
	C288.126251,354.065277 286.421143,354.335754 286.443512,356.368439 
	C286.464722,358.297241 288.009308,358.760529 289.605255,358.790375 
	C293.761017,358.868195 297.918793,358.840149 302.074554,358.918274 
	C305.268066,358.978302 307.735260,360.174255 307.755432,363.778107 
	C307.776245,367.489716 305.319183,368.431671 302.047485,368.360779 
	C298.058899,368.274414 294.065704,368.315338 290.076233,368.392883 
	C288.104004,368.431213 286.221069,369.034760 286.422485,371.460083 
	C286.606506,373.676025 288.560822,373.684265 290.250336,373.695892 
	C294.906128,373.727875 299.562225,373.724976 304.218201,373.726471 
	C307.649139,373.727570 309.459839,375.230408 309.396454,378.864349 
	C309.334442,382.420807 307.311890,383.372314 304.210205,383.356506 
	C296.228638,383.315918 288.243683,383.208771 280.266235,383.394165 
	C275.719818,383.499817 273.934814,381.442352 273.981842,377.117218 
	C274.063202,369.635010 274.032654,362.151611 274.050537,354.196289 
z"/>
<path fill="#000000" opacity="1.000000" stroke="none" 
	d="
M303.859924,211.973328 
	C304.839783,218.591721 303.893555,219.779846 297.730804,219.942139 
	C294.069763,220.038544 290.401245,219.877151 286.741943,220.003220 
	C284.733643,220.072403 281.675537,219.239441 281.549561,222.301788 
	C281.419495,225.464188 284.492188,224.781494 286.511597,224.858475 
	C290.004028,224.991577 293.505005,224.881973 297.000610,224.956772 
	C300.170319,225.024612 302.608063,226.049286 302.572998,229.822678 
	C302.536987,233.695328 300.043152,234.389755 296.841766,234.336533 
	C292.846649,234.270126 288.849091,234.318756 284.852997,234.360474 
	C283.032379,234.379471 281.411682,234.932068 281.404602,237.089050 
	C281.397217,239.333633 283.140015,239.677917 284.907135,239.695938 
	C289.569305,239.743439 294.231995,239.736984 298.894409,239.762085 
	C302.135468,239.779526 304.365631,240.807892 304.363403,244.628036 
	C304.361115,248.487030 302.162048,249.367905 298.866760,249.342133 
	C290.874146,249.279617 282.878479,249.212128 274.888489,249.370285 
	C270.738190,249.452454 269.100677,247.313705 269.067993,243.609970 
	C268.985687,234.286102 268.996216,224.960846 269.055298,215.636688 
	C269.072449,212.927490 270.037598,210.420685 273.123779,210.248184 
	C282.589905,209.719040 292.072083,209.517715 301.532867,210.414093 
	C302.268951,210.483841 302.942291,211.215561 303.859924,211.973328 
z"/>
<path fill="#000000" opacity="1.000000" stroke="none" 
	d="
M215.519806,366.503296 
	C211.540741,369.705444 207.223877,367.784393 203.204514,368.315460 
	C202.222107,368.445282 201.207626,368.317871 200.208542,368.339081 
	C197.893600,368.388245 194.788162,368.039001 194.740952,371.154724 
	C194.688080,374.645355 198.033295,373.620850 200.148239,373.696350 
	C204.307678,373.844849 208.476135,373.722687 212.640518,373.756165 
	C215.943237,373.782715 218.147278,375.200836 218.172760,378.760559 
	C218.199829,382.544800 215.740158,383.392639 212.487885,383.365204 
	C204.492188,383.297699 196.494370,383.247803 188.499954,383.365143 
	C184.512558,383.423676 182.647873,381.748627 182.671967,377.742737 
	C182.728088,368.414185 182.727661,359.084930 182.685944,349.756287 
	C182.668060,345.759125 184.721390,343.961273 188.537491,343.948059 
	C196.533310,343.920319 204.529633,343.896881 212.525040,343.960602 
	C215.691681,343.985809 218.127396,345.144958 218.186646,348.833710 
	C218.246017,352.529236 215.863693,353.761108 212.679398,353.840515 
	C208.184402,353.952576 203.683640,353.831879 199.188522,353.941254 
	C197.253128,353.988312 194.631699,353.825073 194.727478,356.634979 
	C194.812805,359.137573 197.281906,358.787231 199.049347,358.827515 
	C202.712677,358.911011 206.382156,358.783508 210.042725,358.917175 
	C215.437515,359.114075 216.538544,360.577271 215.519806,366.503296 
z"/>
<path fill="#000000" opacity="1.000000" stroke="none" 
	d="
M167.356689,344.091309 
	C174.737640,345.905731 177.389496,349.130798 177.354218,355.484528 
	C177.339890,358.065521 176.673096,360.082367 174.077286,361.026154 
	C172.588684,361.567383 171.232468,362.224365 171.448898,364.127075 
	C171.626251,365.686157 172.909378,366.099884 174.151932,366.701904 
	C177.175400,368.166779 178.573212,374.764160 177.197327,380.114685 
	C176.276550,383.695435 173.437592,383.267517 170.784882,383.309235 
	C167.709412,383.357635 166.192108,381.702026 165.916351,378.793549 
	C165.775330,377.306061 165.672714,375.786560 165.812576,374.306091 
	C166.252121,369.653320 164.047791,368.205750 159.617264,368.242340 
	C155.266632,368.278259 152.911697,369.606659 153.326508,374.298370 
	C153.457809,375.783478 153.311218,377.292572 153.302826,378.790741 
	C153.285385,381.906830 151.646362,383.263580 148.610931,383.319061 
	C145.638840,383.373383 142.273911,383.349915 142.159195,379.571594 
	C141.841278,369.099609 141.862778,358.609619 142.079010,348.133545 
	C142.148026,344.790131 145.137726,344.028778 147.950897,343.995636 
	C154.274658,343.921173 160.600311,344.006317 167.356689,344.091309 
M162.806458,358.767700 
	C164.226532,358.564331 165.486465,358.064453 165.442932,356.379303 
	C165.400146,354.723450 164.083389,354.224487 162.713043,353.990265 
	C160.752243,353.655090 158.782455,353.240509 156.784042,353.727966 
	C155.250092,354.102173 153.767151,354.761261 153.781143,356.550903 
	C153.796692,358.537659 155.463577,358.777679 157.013382,358.830719 
	C158.672241,358.887482 160.334686,358.839539 162.806458,358.767700 
z"/>
<path fill="#000000" opacity="1.000000" stroke="none" 
	d="
M270.652893,418.186157 
	C270.040283,412.679443 272.483948,410.756989 277.302032,410.876251 
	C283.126740,411.020447 288.967712,410.719635 294.782440,411.003876 
	C301.841888,411.348907 305.221130,414.672058 305.948029,421.379333 
	C306.277832,424.422485 305.791046,427.114105 302.354462,428.144684 
	C300.981293,428.556519 299.734894,429.157745 299.650757,430.681152 
	C299.550171,432.502136 301.036224,433.022919 302.465607,433.681702 
	C305.936890,435.281586 307.395905,441.544434 305.809296,446.904877 
	C304.720062,450.584839 301.848907,450.374268 298.963043,450.296234 
	C296.100464,450.218811 294.715210,448.732391 294.689331,445.906952 
	C294.678650,444.741425 294.571350,443.567932 294.668823,442.411621 
	C295.297638,434.951874 291.418762,434.832184 284.860657,435.578278 
	C282.870422,435.804718 282.242889,437.416534 282.197906,439.248383 
	C282.152954,441.079224 282.114410,442.910461 282.099548,444.741760 
	C282.064789,449.031494 279.778198,450.476044 275.680145,450.379059 
	C271.646912,450.283630 270.588226,448.214478 270.627014,444.637939 
	C270.720825,435.979797 270.654144,427.319885 270.652893,418.186157 
M290.820679,421.025085 
	C288.120270,421.145630 285.189697,420.103607 282.920380,422.433838 
	C282.306458,423.064240 282.268066,424.106689 282.933258,424.674713 
	C285.487366,426.855621 288.538818,425.743408 291.402557,425.710510 
	C292.601288,425.696747 293.677460,425.048035 293.891968,423.731110 
	C294.170227,422.023346 292.945801,421.480499 290.820679,421.025085 
z"/>
<path fill="#000000" opacity="1.000000" stroke="none" 
	d="
M321.048645,450.335938 
	C311.657898,450.302338 311.653900,450.302338 311.650787,441.516235 
	C311.647827,433.205109 311.773529,424.891571 311.604218,416.583954 
	C311.525177,412.706299 313.342377,411.025787 316.910339,410.981018 
	C321.550201,410.922791 326.237732,410.409546 330.801453,411.683411 
	C335.768066,413.069733 338.693420,416.245148 339.372040,421.490784 
	C340.080292,426.965332 339.831635,432.444824 339.507751,437.900238 
	C338.994385,446.547272 334.804565,450.259705 326.016083,450.330261 
	C324.520142,450.342285 323.024078,450.334290 321.048645,450.335938 
M323.097260,430.525604 
	C323.115631,432.679840 323.093964,434.835449 323.165863,436.987885 
	C323.217072,438.521057 323.439697,440.226837 325.324036,440.395996 
	C327.522125,440.593353 328.196655,438.675476 328.221375,437.071655 
	C328.290070,432.611359 328.074615,428.143860 327.870361,423.683868 
	C327.812866,422.428345 327.067352,421.441162 325.660492,421.464020 
	C324.316406,421.485870 323.487457,422.370605 323.364746,423.644745 
	C323.174683,425.617889 323.175751,427.609497 323.097260,430.525604 
z"/>
<path fill="#000000" opacity="1.000000" stroke="none" 
	d="
M239.194489,249.216583 
	C236.125839,248.463562 235.673523,246.431473 235.673676,244.123688 
	C235.674347,234.471832 235.730225,224.819519 235.648361,215.168365 
	C235.617096,211.481598 237.597214,210.094711 240.897385,210.010452 
	C244.065491,209.929535 246.541245,211.000977 246.930710,214.552475 
	C247.165619,216.694504 247.052765,218.872482 247.171036,221.030197 
	C247.253815,222.540558 247.360840,224.302658 249.335754,224.409439 
	C251.638443,224.533951 251.825043,222.604370 251.975571,220.930969 
	C252.169022,218.780502 252.180847,216.613800 252.370407,214.462860 
	C252.696899,210.758499 255.286316,209.937134 258.388184,210.005173 
	C261.453278,210.072388 263.536713,211.402420 263.522552,214.785355 
	C263.479462,225.086273 263.435577,235.387650 263.288544,245.687363 
	C263.249207,248.441437 261.299103,249.280579 258.849945,249.294510 
	C256.160706,249.309814 253.205078,249.611542 252.559708,245.998535 
	C252.153656,243.725281 252.233551,241.367615 252.051392,239.051270 
	C251.908188,237.230713 251.947861,234.894165 249.465790,234.975967 
	C246.972992,235.058136 247.264664,237.453156 247.126984,239.234070 
	C247.050171,240.227463 247.102402,241.230225 247.076004,242.228226 
	C246.913071,248.387421 246.055313,249.196732 239.194489,249.216583 
z"/>
<path fill="#000000" opacity="1.000000" stroke="none" 
	d="
M178.665466,298.021973 
	C178.675613,295.199646 178.637939,292.870453 178.702499,290.544159 
	C178.939240,282.014465 183.542984,277.353455 192.048447,276.984650 
	C200.683289,276.610199 206.257523,280.709015 206.896698,288.935822 
	C207.474442,296.372101 207.170303,303.888336 207.024429,311.364807 
	C206.944229,315.476105 204.171799,316.466095 200.499313,316.345215 
	C196.794296,316.223358 195.545776,314.263367 195.647446,310.893127 
	C195.682434,309.733093 195.698227,308.547485 195.501541,307.411865 
	C195.260681,306.021088 194.494141,304.822174 192.923996,304.828003 
	C191.352142,304.833862 190.632156,306.009460 190.403427,307.435547 
	C190.272644,308.250946 190.247879,309.095032 190.277710,309.922546 
	C190.429413,314.127869 188.916473,316.437408 184.215515,316.390839 
	C179.208878,316.341125 178.567627,313.407471 178.658340,309.490326 
	C178.742996,305.834290 178.668823,302.174561 178.665466,298.021973 
M190.292526,292.372192 
	C190.411591,294.326080 190.153595,296.798523 193.143616,296.418762 
	C195.333725,296.140564 195.659485,294.117981 195.629288,292.192596 
	C195.598053,290.201569 195.751114,287.822662 193.165939,287.514191 
	C190.260513,287.167542 190.377365,289.598999 190.292526,292.372192 
z"/>
<path fill="#000000" opacity="1.000000" stroke="none" 
	d="
M249.319672,410.980225 
	C261.178894,411.238373 265.283813,415.425568 265.299164,426.838135 
	C265.307007,432.659912 265.236481,438.482300 265.302368,444.303253 
	C265.348541,448.381287 263.741180,450.439240 259.376068,450.380829 
	C255.324341,450.326630 253.567749,448.544189 253.697723,444.610474 
	C253.730606,443.615540 253.676010,442.613739 253.598114,441.620087 
	C253.483017,440.152069 252.780197,438.902100 251.274719,438.815369 
	C249.481201,438.712006 248.668060,440.085785 248.449585,441.698700 
	C248.294235,442.845612 248.293076,444.024323 248.334061,445.184906 
	C248.459396,448.734985 246.797211,450.264740 243.235779,450.368073 
	C239.499878,450.476471 236.914963,449.413849 236.859741,445.280212 
	C236.759781,437.797333 236.513367,430.295990 236.906738,422.832855 
	C237.266602,416.005981 241.002289,412.701385 249.319672,410.980225 
M248.544006,428.670868 
	C249.591690,430.713531 251.266220,431.516144 252.850861,429.679688 
	C254.482498,427.788635 253.840195,425.235260 253.333008,422.986664 
	C253.045898,421.713776 251.830414,421.144470 250.565659,421.483215 
	C247.901917,422.196716 248.453995,424.483124 248.358093,426.414307 
	C248.333435,426.910919 248.390305,427.411621 248.544006,428.670868 
z"/>
<path fill="#000000" opacity="1.000000" stroke="none" 
	d="
M231.349487,436.791504 
	C231.049591,445.297577 227.023788,449.912018 219.964279,450.311523 
	C209.360275,450.911621 204.364441,447.723297 203.309875,438.983643 
	C202.594711,433.056702 202.465195,427.027161 203.604218,421.081909 
	C204.946732,414.074493 210.454163,410.345154 218.468674,410.968567 
	C226.670578,411.606598 231.121063,415.834106 231.316116,423.336426 
	C231.428574,427.661926 231.345245,431.992554 231.349487,436.791504 
M214.395416,427.906342 
	C214.410278,430.875214 214.355179,433.846680 214.466522,436.811920 
	C214.532028,438.555725 215.185364,440.254120 217.185028,440.371094 
	C219.435196,440.502747 219.739304,438.665710 219.759293,436.940979 
	C219.807098,432.818237 219.808334,428.694244 219.761856,424.571472 
	C219.746597,423.217377 219.479187,421.807098 217.822266,421.546387 
	C215.939835,421.250214 215.181656,422.631561 214.744110,424.106628 
	C214.468567,425.035583 214.505295,426.057220 214.395416,427.906342 
z"/>
<path fill="#000000" opacity="1.000000" stroke="none" 
	d="
M328.669617,300.856628 
	C328.674225,296.883575 328.585663,293.385651 328.704132,289.894775 
	C328.950104,282.647552 332.546631,278.357727 339.735138,277.364044 
	C343.658264,276.821716 347.696442,276.997162 351.680298,277.045990 
	C354.729248,277.083344 356.853394,278.599731 356.924133,281.850891 
	C356.995331,285.121460 354.972168,286.590088 351.865936,286.777344 
	C351.699829,286.787354 351.531097,286.786682 351.368561,286.817383 
	C347.884491,287.475433 342.862793,285.119232 341.155243,288.685852 
	C338.893860,293.409149 340.328308,299.131470 340.500366,304.423859 
	C340.540161,305.647583 341.518768,306.545227 342.924286,306.401459 
	C344.219971,306.268921 345.174316,305.384277 345.347595,304.207550 
	C345.636292,302.247345 345.710144,300.231384 345.638733,298.247375 
	C345.503967,294.504242 347.131927,292.771637 350.936462,292.669128 
	C354.850891,292.563660 356.993256,294.206940 357.088715,298.115448 
	C357.194275,302.438782 357.207855,306.770813 357.056702,311.091919 
	C356.930969,314.685516 354.989716,316.520142 351.255493,316.359650 
	C348.763794,316.252594 346.263885,316.343872 343.767700,316.332947 
	C332.711761,316.284546 328.838806,312.435028 328.669617,300.856628 
z"/>
<path fill="#000000" opacity="1.000000" stroke="none" 
	d="
M238.587814,372.267334 
	C240.875641,370.741272 240.634033,368.664520 240.641998,366.683197 
	C240.665405,360.863647 240.713242,355.043610 240.661621,349.224548 
	C240.629623,345.615082 242.611649,344.107544 245.909851,343.986389 
	C249.085236,343.869720 251.676392,345.003418 251.961456,348.510681 
	C252.843567,359.363251 252.427063,370.098663 248.162354,380.354370 
	C248.098709,380.507385 248.065613,380.688477 247.961914,380.807251 
	C243.520782,385.893524 237.669235,382.392700 232.535355,383.288910 
	C229.879501,383.752533 228.364059,382.229187 227.300507,379.739502 
	C222.968018,369.597443 223.397675,358.959991 223.818146,348.330200 
	C223.952377,344.936829 226.491669,343.954224 229.424530,344.006256 
	C232.824295,344.066559 235.239944,345.425903 235.256790,349.299835 
	C235.283554,355.451874 235.255386,361.604492 235.336090,367.755737 
	C235.363190,369.820221 234.847443,372.387482 238.587814,372.267334 
z"/>
<path fill="#000000" opacity="1.000000" stroke="none" 
	d="
M169.266861,286.588928 
	C168.502426,286.704346 168.166443,286.717438 167.841248,286.783539 
	C164.353683,287.492645 159.585022,285.123138 157.523209,288.563660 
	C154.833710,293.051605 156.496231,298.624603 156.624359,303.729492 
	C156.663101,305.273438 157.786484,306.608734 159.630707,306.383911 
	C161.218002,306.190430 161.717697,304.885010 161.787292,303.449158 
	C161.859818,301.952820 161.903534,300.452576 161.886154,298.954895 
	C161.836166,294.654724 163.689896,292.522675 168.234406,292.649994 
	C172.599533,292.772278 173.469040,295.253296 173.368179,298.904449 
	C173.253220,303.066010 173.304153,307.232574 173.311951,311.396912 
	C173.318054,314.659088 171.803680,316.359161 168.459595,316.330109 
	C165.294952,316.302612 162.129639,316.354431 158.965012,316.326752 
	C150.268585,316.250732 146.091843,312.574005 145.292343,303.859589 
	C144.775146,298.222412 144.820465,292.550629 145.655304,286.914124 
	C146.272751,282.745392 148.551636,279.720886 152.400940,278.324585 
	C157.998611,276.294006 163.883163,276.632385 169.688812,277.296722 
	C171.908096,277.550659 173.139282,279.116730 173.262009,281.449890 
	C173.401093,284.093231 172.650345,286.063904 169.266861,286.588928 
z"/>
<path fill="#000000" opacity="1.000000" stroke="none" 
	d="
M207.891418,239.863342 
	C207.886993,234.719650 207.789444,230.054459 207.907639,225.394745 
	C207.992889,222.033356 206.982224,219.896103 203.215500,219.877106 
	C199.764191,219.859711 197.492233,218.694931 197.640717,214.601562 
	C197.798813,210.243362 200.781357,209.990952 203.872284,209.955170 
	C210.698929,209.876144 217.527451,209.927414 224.354980,209.966324 
	C227.513092,209.984329 229.979156,210.964569 230.132156,214.684097 
	C230.284103,218.378067 228.048416,219.767929 224.800629,219.780136 
	C220.366089,219.796814 219.151535,222.141571 219.298767,226.185394 
	C219.504639,231.839905 219.264923,237.509277 219.375458,243.169159 
	C219.445496,246.755524 218.885025,249.289444 214.361588,249.396545 
	C209.897644,249.502243 207.779556,247.801453 207.902725,243.341507 
	C207.930298,242.343277 207.896301,241.343338 207.891418,239.863342 
z"/>
<path fill="#000000" opacity="1.000000" stroke="none" 
	d="
M175.061035,116.697258 
	C179.940598,116.797264 181.461655,119.117546 181.355789,123.460503 
	C181.132599,132.617416 181.207672,141.784271 181.313919,150.945267 
	C181.358017,154.746857 181.175980,157.975586 176.192657,158.308044 
	C170.979477,158.655823 166.020554,156.081467 165.866180,151.827179 
	C165.522186,142.347168 165.394791,132.823700 165.943405,123.362236 
	C166.209412,118.774277 170.230591,116.988571 175.061035,116.697258 
z"/>
<path fill="#000000" opacity="1.000000" stroke="none" 
	d="
M194.989899,154.998688 
	C195.283310,158.117599 198.323776,159.821976 199.231094,162.665085 
	C189.090530,166.607117 181.910004,162.024048 181.892700,151.785080 
	C181.875565,141.650421 181.962891,131.515167 181.876801,121.381256 
	C181.840454,117.101784 183.384384,113.903084 187.414703,112.267632 
	C190.277496,111.105949 192.328064,111.537987 192.156143,115.359146 
	C191.748032,124.430717 194.393936,133.436920 192.292099,142.609085 
	C191.380264,146.588196 191.977402,150.900024 194.744263,154.798615 
	C195.015411,155.035995 195.000748,155.008942 194.989899,154.998688 
z"/>
<path fill="#000000" opacity="1.000000" stroke="none" 
	d="
M271.363739,277.482666 
	C274.047333,278.833527 274.279724,280.961639 274.278839,283.196167 
	C274.275299,292.187103 274.236176,301.178223 274.285278,310.168884 
	C274.307068,314.155884 272.918091,316.385742 268.467743,316.385040 
	C264.059784,316.384338 262.606293,314.304810 262.650085,310.227600 
	C262.743103,301.570740 262.625183,292.911835 262.670349,284.254150 
	C262.704010,277.799652 264.130280,276.655914 271.363739,277.482666 
z"/>
<path fill="#000000" opacity="1.000000" stroke="none" 
	d="
M268.400391,364.998291 
	C268.394775,369.811981 268.353088,374.126678 268.394775,378.440582 
	C268.426361,381.704865 267.001099,383.280853 263.622742,383.363708 
	C260.294647,383.445312 257.244446,382.950500 257.172699,378.997070 
	C256.989136,368.883728 257.047119,358.761292 257.261932,348.647888 
	C257.343933,344.786957 260.259796,343.832550 263.597076,344.007019 
	C267.072968,344.188721 268.510559,346.103760 268.421448,349.565308 
	C268.293396,354.540100 268.396027,359.520782 268.400391,364.998291 
z"/>
<path fill="#000000" opacity="1.000000" stroke="none" 
	d="
M280.607788,115.714531 
	C281.639038,118.812401 280.569092,120.636009 277.877014,121.328743 
	C275.965271,121.820679 274.225464,121.263588 273.290283,119.304436 
	C272.389923,117.418221 272.696198,115.569260 274.370331,114.417480 
	C276.529877,112.931725 278.734100,113.023529 280.607788,115.714531 
z"/>
<path fill="#000000" opacity="1.000000" stroke="none" 
	d="
M286.397095,128.908447 
	C283.464752,129.508362 281.370209,129.066498 280.799408,126.098900 
	C280.433105,124.194244 280.774414,122.439758 282.691528,121.475166 
	C284.793671,120.417465 286.584961,121.190804 287.901733,122.877258 
	C289.687195,125.163979 288.971802,127.141953 286.397095,128.908447 
z"/>
<path fill="#000000" opacity="1.000000" stroke="none" 
	d="
M279.754395,130.223877 
	C281.695282,132.776505 281.389099,134.816513 279.141083,136.434631 
	C277.477478,137.632065 275.719543,137.484238 274.237640,136.044449 
	C272.655151,134.506897 272.142426,132.544495 273.468231,130.734573 
	C275.054993,128.568359 277.222778,128.318985 279.754395,130.223877 
z"/>
<path fill="#000000" opacity="1.000000" stroke="none" 
	d="
M267.642395,121.782837 
	C270.633057,121.217560 272.603638,122.052757 273.044556,124.879433 
	C273.363251,126.922325 272.153595,128.405304 270.265686,128.964096 
	C268.337036,129.534943 266.678558,128.758087 265.740234,126.936333 
	C264.645905,124.811661 265.441620,123.167252 267.642395,121.782837 
z"/>
<path fill="#000000" opacity="1.000000" stroke="none" 
	d="
M236.116272,127.840057 
	C233.504745,128.859863 231.063522,129.460098 231.085648,132.828674 
	C231.097748,134.671234 229.796051,135.884857 227.825638,135.902588 
	C225.895477,135.919968 224.520889,134.730988 224.273270,132.998337 
	C223.842697,129.985382 222.553375,128.180130 219.425980,127.653534 
	C217.773453,127.375267 216.964493,126.039009 217.010468,124.335861 
	C217.059921,122.503189 218.340851,121.626106 219.879974,121.397240 
	C222.329330,121.033028 223.677338,119.966537 224.085312,117.369995 
	C224.386383,115.453842 225.842499,114.110504 227.943985,114.105408 
	C230.123337,114.100128 231.049103,115.630501 231.659515,117.517159 
	C232.705048,120.748642 233.478592,124.052361 237.224808,125.647194 
	C238.699677,126.275078 236.929108,127.066971 236.116272,127.840057 
z"/>
</svg>